<?xml version="1.0" encoding="UTF-8" standalone="no"?>
<!DOCTYPE svg PUBLIC "-//W3C//DTD SVG 1.0//EN" "http://www.w3.org/TR/2001/PR-SVG-20010719/DTD/svg10.dtd">
<svg width="52cm" height="26cm" viewBox="279 140 1023 510" xmlns="http://www.w3.org/2000/svg" xmlns:xlink="http://www.w3.org/1999/xlink">
  <g>
    <path style="fill: #1e90ff" d="M 327.35 274 L 482.45,274 C 503.865,274 521.225,284.969 521.225,298.5 C 521.225,312.031 503.865,323 482.45,323 L 327.35,323 C 305.935,323 288.575,312.031 288.575,298.5 C 288.575,284.969 305.935,274 327.35,274z"/>
    <path style="fill: none; fill-opacity:0; stroke-width: 2; stroke: #ffffff" d="M 327.35 274 L 482.45,274 C 503.865,274 521.225,284.969 521.225,298.5 C 521.225,312.031 503.865,323 482.45,323 L 327.35,323 C 305.935,323 288.575,312.031 288.575,298.5 C 288.575,284.969 305.935,274 327.35,274"/>
    <text font-size="12.8" style="fill: #ffffff;text-anchor:middle;font-family:sans-serif;font-style:normal;font-weight:normal" x="404.9" y="302.5">
      <tspan x="404.9" y="302.5">flashmediaelement.swf</tspan>
    </text>
  </g>
  <g>
    <rect style="fill: none; fill-opacity:0; stroke-width: 2; stroke: #000000" x="281" y="233.185" width="284" height="218.815"/>
    <text font-size="12.8" style="fill: #000000;text-anchor:middle;font-family:sans-serif;font-style:normal;font-weight:normal" x="423" y="346.493">
      <tspan x="423" y="346.493"></tspan>
    </text>
  </g>
  <text font-size="12.8" style="fill: #000000;text-anchor:start;font-family:sans-serif;font-style:normal;font-weight:normal" x="284.846" y="222.9">
    <tspan x="284.846" y="222.9">WordPress site security sandbox</tspan>
  </text>
  <text font-size="12.7998" style="fill: #000000;text-anchor:start;font-family:sans-serif;font-style:normal;font-weight:normal" x="324" y="220">
    <tspan x="324" y="220"></tspan>
  </text>
  <g>
    <path style="fill: #1e90ff" d="M 797.35 267.9 L 952.45,267.9 C 973.865,267.9 991.225,278.869 991.225,292.4 C 991.225,305.931 973.865,316.9 952.45,316.9 L 797.35,316.9 C 775.935,316.9 758.575,305.931 758.575,292.4 C 758.575,278.869 775.935,267.9 797.35,267.9z"/>
    <path style="fill: none; fill-opacity:0; stroke-width: 2; stroke: #ffffff" d="M 797.35 267.9 L 952.45,267.9 C 973.865,267.9 991.225,278.869 991.225,292.4 C 991.225,305.931 973.865,316.9 952.45,316.9 L 797.35,316.9 C 775.935,316.9 758.575,305.931 758.575,292.4 C 758.575,278.869 775.935,267.9 797.35,267.9"/>
    <text font-size="12.8" style="fill: #ffffff;text-anchor:middle;font-family:sans-serif;font-style:normal;font-weight:normal" x="874.9" y="296.4">
      <tspan x="874.9" y="296.4">vulnerable SWF file</tspan>
    </text>
  </g>
  <g>
    <rect style="fill: none; fill-opacity:0; stroke-width: 2; stroke: #000000" x="755" y="229.085" width="258" height="278.915"/>
    <text font-size="12.8" style="fill: #000000;text-anchor:middle;font-family:sans-serif;font-style:normal;font-weight:normal" x="884" y="372.443">
      <tspan x="884" y="372.443"></tspan>
    </text>
  </g>
  <text font-size="12.8" style="fill: #000000;text-anchor:start;font-family:sans-serif;font-style:normal;font-weight:normal" x="760.846" y="220.8">
    <tspan x="760.846" y="220.8">[XYZ].com security sandbox</tspan>
  </text>
  <text font-size="12.7998" style="fill: #000000;text-anchor:start;font-family:sans-serif;font-style:normal;font-weight:normal" x="794" y="213.9">
    <tspan x="794" y="213.9"></tspan>
  </text>
  <text font-size="12.7998" style="fill: #000000;text-anchor:start;font-family:sans-serif;font-style:normal;font-weight:normal" x="762" y="215">
    <tspan x="762" y="215"></tspan>
  </text>
  <text font-size="12.7998" style="fill: #000000;text-anchor:start;font-family:sans-serif;font-style:normal;font-weight:normal" x="884" y="368.543">
    <tspan x="884" y="368.543"></tspan>
  </text>
  <text font-size="12.7998" style="fill: #000000;text-anchor:start;font-family:sans-serif;font-style:normal;font-weight:normal" x="874.9" y="292.4">
    <tspan x="874.9" y="292.4"></tspan>
  </text>
  <g>
    <line style="fill: none; fill-opacity:0; stroke-width: 2; stroke: #000000" x1="521.225" y1="298.5" x2="742.383" y2="263.521"/>
    <polygon style="fill: #000000" points="749.791,262.349 740.695,268.85 742.383,263.521 739.133,258.973 "/>
    <polygon style="fill: none; fill-opacity:0; stroke-width: 2; stroke: #000000" points="749.791,262.349 740.695,268.85 742.383,263.521 739.133,258.973 "/>
  </g>
  <text font-size="12.7998" style="fill: #000000;text-anchor:start;font-family:sans-serif;font-style:normal;font-weight:normal" x="585" y="255">
    <tspan x="585" y="255">allowDomain(XYZ.com)</tspan>
  </text>
  <g>
    <rect style="fill: none; fill-opacity:0; stroke-width: 2; stroke: #000000" x="1102.9" y="240.085" width="198.1" height="151"/>
    <text font-size="12.8" style="fill: #000000;text-anchor:middle;font-family:sans-serif;font-style:normal;font-weight:normal" x="1201.95" y="319.485">
      <tspan x="1201.95" y="319.485"></tspan>
    </text>
  </g>
  <text font-size="12.8" style="fill: #000000;text-anchor:start;font-family:sans-serif;font-style:normal;font-weight:normal" x="1111.85" y="233.8">
    <tspan x="1111.85" y="233.8">evil.com security sandbox</tspan>
  </text>
  <text font-size="12.7998" style="fill: #000000;text-anchor:start;font-family:sans-serif;font-style:normal;font-weight:normal" x="1167" y="230.9">
    <tspan x="1167" y="230.9"></tspan>
  </text>
  <text font-size="12.7998" style="fill: #000000;text-anchor:start;font-family:sans-serif;font-style:normal;font-weight:normal" x="1135" y="232">
    <tspan x="1135" y="232"></tspan>
  </text>
  <text font-size="12.7998" style="fill: #000000;text-anchor:start;font-family:sans-serif;font-style:normal;font-weight:normal" x="1201.95" y="315.585">
    <tspan x="1201.95" y="315.585"></tspan>
  </text>
  <text font-size="12.7998" style="fill: #000000;text-anchor:start;font-family:sans-serif;font-style:normal;font-weight:normal" x="1240.9" y="306.4">
    <tspan x="1240.9" y="306.4"></tspan>
  </text>
  <g>
    <path style="fill: #ff4e00" d="M 1145.23 254 L 1266.57,254 C 1283.32,254 1296.9,264.969 1296.9,278.5 C 1296.9,292.031 1283.32,303 1266.57,303 L 1145.23,303 C 1128.48,303 1114.9,292.031 1114.9,278.5 C 1114.9,264.969 1128.48,254 1145.23,254z"/>
    <path style="fill: none; fill-opacity:0; stroke-width: 2; stroke: #ffffff" d="M 1145.23 254 L 1266.57,254 C 1283.32,254 1296.9,264.969 1296.9,278.5 C 1296.9,292.031 1283.32,303 1266.57,303 L 1145.23,303 C 1128.48,303 1114.9,292.031 1114.9,278.5 C 1114.9,264.969 1128.48,254 1145.23,254"/>
    <text font-size="12.8" style="fill: #ffffff;text-anchor:middle;font-family:sans-serif;font-style:normal;font-weight:normal" x="1205.9" y="282.5">
      <tspan x="1205.9" y="282.5">Evil.swf</tspan>
    </text>
  </g>
  <text font-size="12.7998" style="fill: #000000;text-anchor:start;font-family:sans-serif;font-style:normal;font-weight:normal" x="1135" y="229">
    <tspan x="1135" y="229"></tspan>
  </text>
  <g>
    <line style="fill: none; fill-opacity:0; stroke-width: 2; stroke: #000000" x1="1114.85" y1="284.395" x2="1000.94" y2="291.771"/>
    <polygon style="fill: #000000" points="993.456,292.256 1003.11,286.62 1000.94,291.771 1003.76,296.599 "/>
    <polygon style="fill: none; fill-opacity:0; stroke-width: 2; stroke: #000000" points="993.456,292.256 1003.11,286.62 1000.94,291.771 1003.76,296.599 "/>
  </g>
  <text font-size="12.7998" style="fill: #000000;text-anchor:start;font-family:sans-serif;font-style:normal;font-weight:normal" x="1017" y="280">
    <tspan x="1017" y="280">XSF exploit 1</tspan>
  </text>
  <g>
    <path style="fill: #ff4e00" d="M 805.233 411 L 926.567,411 C 943.319,411 956.9,421.969 956.9,435.5 C 956.9,449.031 943.319,460 926.567,460 L 805.233,460 C 788.481,460 774.9,449.031 774.9,435.5 C 774.9,421.969 788.481,411 805.233,411z"/>
    <path style="fill: none; fill-opacity:0; stroke-width: 2; stroke: #ffffff" d="M 805.233 411 L 926.567,411 C 943.319,411 956.9,421.969 956.9,435.5 C 956.9,449.031 943.319,460 926.567,460 L 805.233,460 C 788.481,460 774.9,449.031 774.9,435.5 C 774.9,421.969 788.481,411 805.233,411"/>
    <text font-size="12.8" style="fill: #ffffff;text-anchor:middle;font-family:sans-serif;font-style:normal;font-weight:normal" x="865.9" y="439.5">
      <tspan x="865.9" y="439.5">Evil2.swf</tspan>
    </text>
  </g>
  <g>
    <line style="fill: none; fill-opacity:0; stroke-width: 2; stroke: #000000" x1="874.9" y1="316.9" x2="868.571" y2="400.297"/>
    <polygon style="fill: #000000" points="868.004,407.775 863.775,397.426 868.571,400.297 873.746,398.182 "/>
    <polygon style="fill: none; fill-opacity:0; stroke-width: 2; stroke: #000000" points="868.004,407.775 863.775,397.426 868.571,400.297 873.746,398.182 "/>
  </g>
  <text font-size="12.7998" style="fill: #000000;text-anchor:start;font-family:sans-serif;font-style:normal;font-weight:normal" x="879.9" y="367.9">
    <tspan x="879.9" y="367.9">XSF exploit 1 result</tspan>
  </text>
  <g>
    <line style="fill: none; fill-opacity:0; stroke-width: 2; stroke: #000000" x1="788.77" y1="413.939" x2="472.827" y2="325.621"/>
    <polygon style="fill: #000000" points="465.604,323.602 476.58,321.479 472.827,325.621 473.888,331.11 "/>
    <polygon style="fill: none; fill-opacity:0; stroke-width: 2; stroke: #000000" points="465.604,323.602 476.58,321.479 472.827,325.621 473.888,331.11 "/>
  </g>
  <text font-size="12.7998" style="fill: #000000;text-anchor:start;font-family:sans-serif;font-style:normal;font-weight:normal" x="1047" y="272">
    <tspan x="1047" y="272"></tspan>
  </text>
  <text font-size="12.7998" style="fill: #000000;text-anchor:start;font-family:sans-serif;font-style:normal;font-weight:normal" x="616" y="358">
    <tspan x="616" y="358">XSF exploit 2</tspan>
  </text>
  <g>
    <ellipse style="fill: #ffffff" cx="398.305" cy="571.622" rx="100.405" ry="63.3984"/>
    <ellipse style="fill: none; fill-opacity:0; stroke-width: 2; stroke: #000000" cx="398.305" cy="571.622" rx="100.405" ry="63.3984"/>
    <text font-size="12.8" style="fill: #000000;text-anchor:middle;font-family:sans-serif;font-style:normal;font-weight:normal" x="398.305" y="575.522">
      <tspan x="398.305" y="575.522"></tspan>
    </text>
  </g>
  <g>
    <ellipse style="fill: #ffffff" cx="647.915" cy="570.045" rx="83.4347" ry="59.9738"/>
    <ellipse style="fill: none; fill-opacity:0; stroke-width: 2; stroke: #000000" cx="647.915" cy="570.045" rx="83.4347" ry="59.9738"/>
    <text font-size="12.8" style="fill: #000000;text-anchor:middle;font-family:sans-serif;font-style:normal;font-weight:normal" x="647.915" y="573.945">
      <tspan x="647.915" y="573.945"></tspan>
    </text>
  </g>
  <g>
    <ellipse style="fill: #ffffff" cx="526.645" cy="568.014" rx="125.507" ry="81.005"/>
    <ellipse style="fill: none; fill-opacity:0; stroke-width: 2; stroke: #000000" cx="526.645" cy="568.014" rx="125.507" ry="81.005"/>
    <text font-size="12.8" style="fill: #000000;text-anchor:middle;font-family:sans-serif;font-style:normal;font-weight:normal" x="526.645" y="571.914">
      <tspan x="526.645" y="571.914"></tspan>
    </text>
  </g>
  <g>
    <rect style="fill: #ffffff" x="379.175" y="516.019" width="279.35" height="107"/>
    <rect style="fill: none; fill-opacity:0; stroke-width: 2; stroke: #ffffff" x="379.175" y="516.019" width="279.35" height="107"/>
    <text font-size="12.8" style="fill: #000000;text-anchor:middle;font-family:sans-serif;font-style:normal;font-weight:normal" x="518.85" y="541.419">
      <tspan x="518.85" y="541.419">WEB requests to WordPress site domain</tspan>
      <tspan x="518.85" y="557.419"></tspan>
      <tspan x="518.85" y="573.419"></tspan>
      <tspan x="518.85" y="589.419"></tspan>
      <tspan x="518.85" y="605.419"></tspan>
    </text>
  </g>
  <text font-size="12.7998" style="fill: #000000;text-anchor:start;font-family:sans-serif;font-style:normal;font-weight:normal" x="518.85" y="569.519">
    <tspan x="518.85" y="569.519"></tspan>
  </text>
  <text font-size="12.7998" style="fill: #000000;text-anchor:start;font-family:sans-serif;font-style:normal;font-weight:normal" x="518.85" y="569.519">
    <tspan x="518.85" y="569.519"></tspan>
  </text>
  <text font-size="28.2222" style="fill: #000000;text-anchor:start;font-family:sans-serif;font-style:normal;font-weight:700" x="461.9" y="167.2">
    <tspan x="461.9" y="167.2">FlashME! chain of Flash vulnerabilities</tspan>
  </text>
  <text font-size="16.9333" style="fill: #000000;text-anchor:start;font-family:sans-serif;font-style:normal;font-weight:700" x="644" y="241">
    <tspan x="644" y="241">1</tspan>
  </text>
  <text font-size="16.9333" style="fill: #ff4e00;text-anchor:start;font-family:sans-serif;font-style:normal;font-weight:700" x="1036" y="262">
    <tspan x="1036" y="262">2</tspan>
  </text>
  <text font-size="16.9333" style="fill: #ff4e00;text-anchor:start;font-family:sans-serif;font-style:normal;font-weight:700" x="943" y="355">
    <tspan x="943" y="355">3</tspan>
  </text>
  <text font-size="16.9333" style="fill: #ff4e00;text-anchor:start;font-family:sans-serif;font-style:normal;font-weight:700" x="637" y="342">
    <tspan x="637" y="342">4</tspan>
  </text>
  <text font-size="16.9333" style="fill: #ff4e00;text-anchor:start;font-family:sans-serif;font-style:normal;font-weight:700" x="420" y="477">
    <tspan x="420" y="477">6</tspan>
  </text>
  <text font-size="12.7998" style="fill: #000000;text-anchor:start;font-family:sans-serif;font-style:normal;font-weight:normal" x="393" y="536">
    <tspan x="393" y="536"></tspan>
  </text>
  <text font-size="12.7998" style="fill: #000000;text-anchor:start;font-family:sans-serif;font-style:normal;font-weight:normal" x="439" y="467">
    <tspan x="439" y="467">Evil3.swf performs arbitrary "XHR" requests to</tspan>
    <tspan x="439" y="483">WordPress site domain and reads responses</tspan>
  </text>
  <text font-size="12.7998" style="fill: #000000;text-anchor:start;font-family:sans-serif;font-style:normal;font-weight:normal" x="1011" y="149">
    <tspan x="1011" y="149"></tspan>
  </text>
  <text font-size="12.7998" style="fill: #000000;text-anchor:start;font-family:sans-serif;font-style:normal;font-weight:normal" x="656" y="531">
    <tspan x="656" y="531"></tspan>
  </text>
  <text font-size="12.7998" style="fill: #000000;text-anchor:start;font-family:sans-serif;font-style:normal;font-weight:normal" x="518.85" y="569.519">
    <tspan x="518.85" y="569.519"></tspan>
  </text>
  <g>
    <path style="fill: #ff4e00" d="M 356.233 381 L 477.567,381 C 494.319,381 507.9,391.969 507.9,405.5 C 507.9,419.031 494.319,430 477.567,430 L 356.233,430 C 339.481,430 325.9,419.031 325.9,405.5 C 325.9,391.969 339.481,381 356.233,381z"/>
    <path style="fill: none; fill-opacity:0; stroke-width: 2; stroke: #ffffff" d="M 356.233 381 L 477.567,381 C 494.319,381 507.9,391.969 507.9,405.5 C 507.9,419.031 494.319,430 477.567,430 L 356.233,430 C 339.481,430 325.9,419.031 325.9,405.5 C 325.9,391.969 339.481,381 356.233,381"/>
    <text font-size="12.8" style="fill: #ffffff;text-anchor:middle;font-family:sans-serif;font-style:normal;font-weight:normal" x="416.9" y="409.5">
      <tspan x="416.9" y="409.5">Evil3.swf</tspan>
    </text>
  </g>
  <g>
    <line style="fill: none; fill-opacity:0; stroke-width: 2; stroke: #000000" x1="366.125" y1="323" x2="383.33" y2="371.818"/>
    <polygon style="fill: #000000" points="385.823,378.891 377.784,371.122 383.33,371.818 387.215,367.798 "/>
    <polygon style="fill: none; fill-opacity:0; stroke-width: 2; stroke: #000000" points="385.823,378.891 377.784,371.122 383.33,371.818 387.215,367.798 "/>
  </g>
  <text font-size="12.7998" style="fill: #000000;text-anchor:start;font-family:sans-serif;font-style:normal;font-weight:normal" x="387.255" y="371.073">
    <tspan x="387.255" y="371.073">XSF exploit 2 result</tspan>
  </text>
  <text font-size="16.9333" style="fill: #ff4e00;text-anchor:start;font-family:sans-serif;font-style:normal;font-weight:700" x="413.355" y="357.173">
    <tspan x="413.355" y="357.173">5</tspan>
  </text>
  <text font-size="12.7998" style="fill: #000000;text-anchor:start;font-family:sans-serif;font-style:normal;font-weight:normal" x="609" y="422">
    <tspan x="609" y="422"></tspan>
  </text>
  <g>
    <line style="fill: none; fill-opacity:0; stroke-width: 2; stroke-dasharray: 10; stroke: #000000" x1="410.551" y1="440.573" x2="400.039" y2="498.643"/>
    <polygon style="fill: #000000" points="411.887,433.193 415.026,443.924 410.551,440.573 405.186,442.143 "/>
    <polygon style="fill: none; fill-opacity:0; stroke-width: 2; stroke: #000000" points="411.887,433.193 415.026,443.924 410.551,440.573 405.186,442.143 "/>
    <polygon style="fill: #000000" points="398.704,506.023 395.565,495.292 400.039,498.643 405.405,497.074 "/>
    <polygon style="fill: none; fill-opacity:0; stroke-width: 2; stroke: #000000" points="398.704,506.023 395.565,495.292 400.039,498.643 405.405,497.074 "/>
  </g>
  <text font-size="12.7998" style="fill: #000000;text-anchor:start;font-family:sans-serif;font-style:normal;font-weight:normal" x="626" y="532">
    <tspan x="626" y="532"></tspan>
  </text>
  <text font-size="12.7998" style="fill: #000000;text-anchor:start;font-family:sans-serif;font-style:normal;font-weight:normal" x="549" y="146">
    <tspan x="549" y="146"></tspan>
  </text>
  <text font-size="12.7998" style="fill: #000000;text-anchor:start;font-family:sans-serif;font-style:normal;font-weight:normal" x="457" y="542">
    <tspan x="457" y="542"></tspan>
  </text>
  <text font-size="12.7998" style="fill: #000000;text-anchor:start;font-family:sans-serif;font-style:normal;font-weight:normal" x="679" y="559">
    <tspan x="679" y="559"></tspan>
  </text>
  <text font-size="12.7998" style="fill: #000000;text-anchor:start;font-family:sans-serif;font-style:normal;font-weight:normal" x="599" y="153">
    <tspan x="599" y="153"></tspan>
  </text>
  <text font-size="12.7998" style="fill: #000000;text-anchor:start;font-family:sans-serif;font-style:normal;font-weight:normal" x="430" y="472">
    <tspan x="430" y="472"></tspan>
  </text>
</svg>
